<svg width="527" height="316" viewBox="0 0 527 316" fill="none" xmlns="http://www.w3.org/2000/svg">
<path d="M220.6 155.4C220.6 163.4 220.067 170.6 219 177H57C58.3333 193 63.9333 205.533 73.8 214.6C83.6667 223.667 95.8 228.2 110.2 228.2C131 228.2 145.8 219.267 154.6 201.4H215C208.6 222.733 196.333 240.333 178.2 254.2C160.067 267.8 137.8 274.6 111.4 274.6C90.0667 274.6 70.8667 269.933 53.8 260.6C37 251 23.8 237.533 14.2 220.2C4.86667 202.867 0.2 182.867 0.2 160.2C0.2 137.267 4.86667 117.133 14.2 99.8C23.5333 82.4667 36.6 69.1333 53.4 59.8C70.2 50.4667 89.5333 45.8 111.4 45.8C132.467 45.8 151.267 50.3333 167.8 59.4C184.6 68.4667 197.533 81.4 206.6 98.2C215.933 114.733 220.6 133.8 220.6 155.4ZM162.6 139.4C162.333 125 157.133 113.533 147 105C136.867 96.2 124.467 91.8 109.8 91.8C95.9333 91.8 84.2 96.0667 74.6 104.6C65.2667 112.867 59.5333 124.467 57.4 139.4H162.6Z" fill="#FAFAFA"/>
<path d="M219 177V179H220.694L220.973 177.329L219 177ZM57 177V175H54.8264L55.0069 177.166L57 177ZM73.8 214.6L72.4468 216.073L72.4468 216.073L73.8 214.6ZM154.6 201.4V199.4H153.356L152.806 200.516L154.6 201.4ZM215 201.4L216.916 201.975L217.688 199.4H215V201.4ZM178.2 254.2L179.4 255.8L179.407 255.794L179.415 255.789L178.2 254.2ZM53.8 260.6L52.8077 262.336L52.824 262.346L52.8404 262.355L53.8 260.6ZM14.2 220.2L12.4391 221.148L12.4447 221.159L12.4504 221.169L14.2 220.2ZM14.2 99.8L12.4391 98.8518L12.4391 98.8518L14.2 99.8ZM53.4 59.8L54.3713 61.5483L54.3713 61.5483L53.4 59.8ZM167.8 59.4L166.838 61.1536L166.85 61.16L167.8 59.4ZM206.6 98.2L204.84 99.1499L204.849 99.1666L204.858 99.1832L206.6 98.2ZM162.6 139.4V141.4H164.637L164.6 139.363L162.6 139.4ZM147 105L145.689 106.51L145.7 106.52L145.712 106.53L147 105ZM74.6 104.6L75.9261 106.097L75.9287 106.095L74.6 104.6ZM57.4 139.4L55.4201 139.117L55.094 141.4H57.4V139.4ZM218.6 155.4C218.6 163.314 218.072 170.401 217.027 176.671L220.973 177.329C222.061 170.799 222.6 163.486 222.6 155.4H218.6ZM219 175H57V179H219V175ZM55.0069 177.166C56.3732 193.562 62.1395 206.601 72.4468 216.073L75.1533 213.127C65.7271 204.466 60.2935 192.438 58.9931 176.834L55.0069 177.166ZM72.4468 216.073C82.7115 225.505 95.3396 230.2 110.2 230.2V226.2C96.2604 226.2 84.6218 221.828 75.1533 213.127L72.4468 216.073ZM110.2 230.2C120.89 230.2 130.164 227.902 137.934 223.212C145.709 218.519 151.851 211.507 156.394 202.284L152.806 200.516C148.549 209.16 142.891 215.547 135.866 219.788C128.836 224.031 120.31 226.2 110.2 226.2V230.2ZM154.6 203.4H215V199.4H154.6V203.4ZM213.084 200.825C206.809 221.745 194.793 238.994 176.985 252.611L179.415 255.789C197.874 241.673 210.391 223.722 216.916 201.975L213.084 200.825ZM177 252.6C159.268 265.899 137.441 272.6 111.4 272.6V276.6C138.159 276.6 160.866 269.701 179.4 255.8L177 252.6ZM111.4 272.6C90.3689 272.6 71.5042 268.002 54.7596 258.845L52.8404 262.355C70.2291 271.864 89.7645 276.6 111.4 276.6V272.6ZM54.7923 258.864C38.3182 249.45 25.3767 236.252 15.9496 219.231L12.4504 221.169C22.2233 238.815 35.6818 252.55 52.8077 262.336L54.7923 258.864ZM15.9609 219.252C6.80684 202.251 2.2 182.586 2.2 160.2H-1.8C-1.8 183.147 2.92649 203.482 12.4391 221.148L15.9609 219.252ZM2.2 160.2C2.2 137.543 6.80861 117.745 15.9609 100.748L12.4391 98.8518C2.92472 116.521 -1.8 136.991 -1.8 160.2H2.2ZM15.9609 100.748C25.1176 83.7429 37.9141 70.6912 54.3713 61.5483L52.4287 58.0517C35.2859 67.5755 21.949 81.1904 12.4391 98.8518L15.9609 100.748ZM54.3713 61.5483C70.8353 52.4017 89.8257 47.8 111.4 47.8V43.8C89.2409 43.8 69.5648 48.5317 52.4287 58.0517L54.3713 61.5483ZM111.4 47.8C132.171 47.8 150.633 52.2668 166.838 61.1536L168.762 57.6464C151.9 48.3998 132.763 43.8 111.4 43.8V47.8ZM166.85 61.16C183.307 70.0414 195.959 82.6931 204.84 99.1499L208.36 97.2501C199.108 80.1068 185.893 66.8919 168.75 57.6399L166.85 61.16ZM204.858 99.1832C214 115.377 218.6 134.096 218.6 155.4H222.6C222.6 133.504 217.867 114.089 208.342 97.2168L204.858 99.1832ZM164.6 139.363C164.323 124.443 158.905 112.41 148.288 103.47L145.712 106.53C155.362 114.656 160.343 125.557 160.6 139.437L164.6 139.363ZM148.311 103.49C137.779 94.3437 124.9 89.8 109.8 89.8V93.8C124.033 93.8 135.954 98.0563 145.689 106.51L148.311 103.49ZM109.8 89.8C95.4858 89.8 83.2678 94.2194 73.2713 103.105L75.9287 106.095C85.1322 97.914 96.3809 93.8 109.8 93.8V89.8ZM73.2739 103.103C63.5149 111.746 57.6058 123.817 55.4201 139.117L59.3799 139.683C61.4608 125.116 67.0184 113.987 75.9261 106.097L73.2739 103.103ZM57.4 141.4H162.6V137.4H57.4V141.4Z" fill="#E14000"/>
<mask id="path-3-inside-1_0_1" fill="white">
<path d="M361 316C319.096 316 278.908 299.354 249.277 269.723C219.646 240.092 203 199.904 203 158C203 116.096 219.646 75.9079 249.277 46.2771C278.908 16.6464 319.096 -4.99703e-07 361 0L361 106.381C347.31 106.381 334.18 111.819 324.5 121.5C314.819 131.18 309.381 144.31 309.381 158C309.381 171.69 314.819 184.82 324.5 194.5C334.18 204.181 347.31 209.619 361 209.619L361 316Z"/>
</mask>
<path d="M361 316C319.096 316 278.908 299.354 249.277 269.723C219.646 240.092 203 199.904 203 158C203 116.096 219.646 75.9079 249.277 46.2771C278.908 16.6464 319.096 -4.99703e-07 361 0L361 106.381C347.31 106.381 334.18 111.819 324.5 121.5C314.819 131.18 309.381 144.31 309.381 158C309.381 171.69 314.819 184.82 324.5 194.5C334.18 204.181 347.31 209.619 361 209.619L361 316Z" stroke="#E14000" stroke-width="60" mask="url(#path-3-inside-1_0_1)"/>
<mask id="path-4-inside-2_0_1" fill="white">
<path d="M369 316C410.904 316 451.092 299.354 480.723 269.723C510.354 240.092 527 199.904 527 158C527 116.096 510.354 75.9079 480.723 46.2771C451.092 16.6464 410.904 -4.99703e-07 369 0L369 106.381C382.69 106.381 395.82 111.819 405.5 121.5C415.181 131.18 420.619 144.31 420.619 158C420.619 171.69 415.181 184.82 405.5 194.5C395.82 204.181 382.69 209.619 369 209.619L369 316Z"/>
</mask>
<path d="M369 316C410.904 316 451.092 299.354 480.723 269.723C510.354 240.092 527 199.904 527 158C527 116.096 510.354 75.9079 480.723 46.2771C451.092 16.6464 410.904 -4.99703e-07 369 0L369 106.381C382.69 106.381 395.82 111.819 405.5 121.5C415.181 131.18 420.619 144.31 420.619 158C420.619 171.69 415.181 184.82 405.5 194.5C395.82 204.181 382.69 209.619 369 209.619L369 316Z" stroke="#E14000" stroke-width="60" mask="url(#path-4-inside-2_0_1)"/>
</svg>
